# xmcd
#
# Track frame offsets:
#	150
#	14104
#	30400
#	45462
#	67337
#	84239
#	96610
#	118760
#	131647
#	143325
#	161052
#	175203
#	188767
#	204465
#	220710
#	237944
#	253724
#	271653
#	285541
#	299142
#
# Disc length: 4212 seconds
# Revision: 1
# Processed by: cddbd v1.5.2PL0 Copyright (c) Steve Scherf et al.
# Submitted via: dBpowerAMP V12.0
#
DISCID=2e107214
DTITLE=Various Artist - Country Radio November 2009
DYEAR=2009
DGENRE=Country
TTITLE0=George Canyon - Betty's Buns
TTITLE1=Terri Clark - If You Want Fire
TTITLE2=Dean Brody - Undone
TTITLE3=Rascal Flatts - Why
TTITLE4=Lost Trailers The - Country Folks Livin Loud
TTITLE5=Eric Church - Hell On The Heart
TTITLE6=Taylor Swift - Fifteen
TTITLE7=George Strait - Twang
TTITLE8=Justin Moore - Backwoods
TTITLE9=Justin Aldean - The Truth
TTITLE10=Gretchen Wilson - Work Hard Play Harder
TTITLE11=Shane Yellowbird - Bare Feet On The Blacktop
TTITLE12=Rodney Atkins - Chasin Girls
TTITLE13=Gord Bamford - Hurtin Me Back
TTITLE14=Deric Ruttan - Sing That Song Again
TTITLE15=Wyatt - Ride On
TTITLE16=Doc Walker - If I Fall
TTITLE17=Lynyrd Skynyrd - Simple Life
TTITLE18=Steel Magnolia - Keep On Loving You
TTITLE19=Alex J Robinson - Possibilities
EXTD=
EXTT0=
EXTT1=
EXTT2=
EXTT3=
EXTT4=
EXTT5=
EXTT6=
EXTT7=
EXTT8=
EXTT9=
EXTT10=
EXTT11=
EXTT12=
EXTT13=
EXTT14=
EXTT15=
EXTT16=
EXTT17=
EXTT18=
EXTT19=
PLAYORDER=
